G04 #@! TF.GenerationSoftware,KiCad,Pcbnew,(5.0.0)*
G04 #@! TF.CreationDate,2020-06-05T12:48:55-07:00*
G04 #@! TF.ProjectId,mojave,6D6F6A6176652E6B696361645F706362,3X*
G04 #@! TF.SameCoordinates,Original*
G04 #@! TF.FileFunction,Copper,L2,Bot,Signal*
G04 #@! TF.FilePolarity,Positive*
%FSLAX46Y46*%
G04 Gerber Fmt 4.6, Leading zero omitted, Abs format (unit mm)*
G04 Created by KiCad (PCBNEW (5.0.0)) date 06/05/20 12:48:55*
%MOMM*%
%LPD*%
G01*
G04 APERTURE LIST*
G04 #@! TA.AperFunction,SMDPad,CuDef*
%ADD10R,0.300000X0.350000*%
G04 #@! TD*
G04 #@! TA.AperFunction,SMDPad,CuDef*
%ADD11R,0.300000X0.700000*%
G04 #@! TD*
G04 #@! TA.AperFunction,SMDPad,CuDef*
%ADD12R,0.300000X1.000000*%
G04 #@! TD*
G04 #@! TA.AperFunction,BGAPad,CuDef*
%ADD13C,0.900000*%
G04 #@! TD*
G04 #@! TA.AperFunction,ViaPad*
%ADD14C,1.060000*%
G04 #@! TD*
G04 #@! TA.AperFunction,ViaPad*
%ADD15C,0.304800*%
G04 #@! TD*
G04 #@! TA.AperFunction,Conductor*
%ADD16C,0.200000*%
G04 #@! TD*
G04 #@! TA.AperFunction,Conductor*
%ADD17C,0.101600*%
G04 #@! TD*
G04 APERTURE END LIST*
D10*
G04 #@! TO.P,C1,1*
G04 #@! TO.N,+1V8*
X98220000Y-97100000D03*
G04 #@! TO.P,C1,2*
G04 #@! TO.N,GND*
X98780000Y-97100000D03*
G04 #@! TD*
D11*
G04 #@! TO.P,J1,1*
G04 #@! TO.N,/INT*
X101750000Y-98600000D03*
G04 #@! TO.P,J1,2*
G04 #@! TO.N,/SCL*
X101250000Y-98600000D03*
G04 #@! TO.P,J1,3*
G04 #@! TO.N,/SDA*
X100750000Y-98600000D03*
G04 #@! TO.P,J1,4*
G04 #@! TO.N,/PROG*
X100250000Y-98600000D03*
G04 #@! TO.P,J1,5*
G04 #@! TO.N,/~RST*
X99750000Y-98600000D03*
G04 #@! TO.P,J1,6*
G04 #@! TO.N,GND*
X99250000Y-98600000D03*
G04 #@! TO.P,J1,7*
X98750000Y-98600000D03*
G04 #@! TO.P,J1,8*
G04 #@! TO.N,+1V8*
X98250000Y-98600000D03*
D12*
G04 #@! TO.P,J1,S*
G04 #@! TO.N,N/C*
X102540000Y-101250000D03*
X97460000Y-101250000D03*
G04 #@! TD*
D13*
G04 #@! TO.P,TP1,1*
G04 #@! TO.N,/INT*
X103000000Y-102900000D03*
G04 #@! TD*
G04 #@! TO.P,TP2,1*
G04 #@! TO.N,/SCL*
X103000000Y-97100000D03*
G04 #@! TD*
G04 #@! TO.P,TP3,1*
G04 #@! TO.N,/SDA*
X101500000Y-97100000D03*
G04 #@! TD*
G04 #@! TO.P,TP4,1*
G04 #@! TO.N,/PROG*
X100000000Y-102900000D03*
G04 #@! TD*
G04 #@! TO.P,TP5,1*
G04 #@! TO.N,/~RST*
X97000000Y-102900000D03*
G04 #@! TD*
G04 #@! TO.P,TP6,1*
G04 #@! TO.N,GND*
X100000000Y-97100000D03*
G04 #@! TD*
G04 #@! TO.P,TP7,1*
G04 #@! TO.N,+1V8*
X97000000Y-97100000D03*
G04 #@! TD*
D14*
G04 #@! TO.N,*
X101500000Y-102900000D03*
X98500000Y-102900000D03*
D15*
G04 #@! TO.N,+1V8*
X97750000Y-99450000D03*
X97750000Y-100050000D03*
G04 #@! TO.N,GND*
X97750000Y-98800000D03*
G04 #@! TO.N,/~RST*
X97864002Y-101200000D03*
G04 #@! TO.N,/PROG*
X102250000Y-98800000D03*
G04 #@! TO.N,/SDA*
X102250000Y-99450000D03*
G04 #@! TO.N,/SCL*
X102250000Y-100050000D03*
G04 #@! TO.N,/INT*
X102250000Y-98350000D03*
G04 #@! TD*
D16*
G04 #@! TO.N,+1V8*
X97300000Y-100050000D02*
X97750000Y-100050000D01*
X97750000Y-99450000D02*
X97534474Y-99450000D01*
X97534474Y-99450000D02*
X97000000Y-99450000D01*
X97000000Y-99750000D02*
X97000000Y-99450000D01*
X97000000Y-99450000D02*
X97000000Y-97100000D01*
X97300000Y-100050000D02*
X97000000Y-99750000D01*
X98250000Y-98600000D02*
X98250000Y-97130000D01*
X98250000Y-97130000D02*
X98220000Y-97100000D01*
X98220000Y-97100000D02*
X97000000Y-97100000D01*
G04 #@! TO.N,GND*
X98561281Y-99151601D02*
X97975523Y-99151601D01*
X97975523Y-99151601D02*
X97750000Y-98926078D01*
X97750000Y-98926078D02*
X97750000Y-98800000D01*
X98750000Y-98600000D02*
X98750000Y-98962882D01*
X98750000Y-98962882D02*
X98561281Y-99151601D01*
X98780000Y-97100000D02*
X100000000Y-97100000D01*
X98750000Y-98600000D02*
X98750000Y-97130000D01*
X98750000Y-97130000D02*
X98780000Y-97100000D01*
X98750000Y-98600000D02*
X99250000Y-98600000D01*
D17*
G04 #@! TO.N,/~RST*
X97864002Y-101200000D02*
X97864002Y-102035998D01*
X97864002Y-102035998D02*
X97000000Y-102900000D01*
X99750000Y-99050000D02*
X97864002Y-100935998D01*
X97864002Y-100935998D02*
X97864002Y-101200000D01*
X99750000Y-98600000D02*
X99750000Y-99050000D01*
G04 #@! TO.N,/PROG*
X101553201Y-100354801D02*
X100000000Y-101908002D01*
X100000000Y-101908002D02*
X100000000Y-102900000D01*
X101553201Y-100354801D02*
X102300000Y-100354801D01*
X102758011Y-99219523D02*
X102758011Y-99993095D01*
X102338488Y-98800000D02*
X102758011Y-99219523D01*
X102250000Y-98800000D02*
X102338488Y-98800000D01*
X102758011Y-99993095D02*
X102396305Y-100354801D01*
X102396305Y-100354801D02*
X102300000Y-100354801D01*
X100250000Y-98600000D02*
X100250000Y-99051600D01*
X100250000Y-99051600D02*
X101553201Y-100354801D01*
G04 #@! TO.N,/SDA*
X101148400Y-99450000D02*
X102250000Y-99450000D01*
X100750000Y-98600000D02*
X100750000Y-97850000D01*
X100750000Y-97850000D02*
X101500000Y-97100000D01*
X100750000Y-98600000D02*
X100750000Y-99051600D01*
X100750000Y-99051600D02*
X101148400Y-99450000D01*
G04 #@! TO.N,/SCL*
X101343599Y-99145199D02*
X102396305Y-99145199D01*
X102396305Y-99145199D02*
X102554801Y-99303695D01*
X102554801Y-99303695D02*
X102554801Y-99745199D01*
X102554801Y-99745199D02*
X102402399Y-99897601D01*
X102402399Y-99897601D02*
X102250000Y-100050000D01*
X101250000Y-98600000D02*
X101250000Y-98213604D01*
X101250000Y-98213604D02*
X102363604Y-97100000D01*
X102363604Y-97100000D02*
X103000000Y-97100000D01*
X101250000Y-98600000D02*
X101250000Y-99051600D01*
X101250000Y-99051600D02*
X101343599Y-99145199D01*
G04 #@! TO.N,/INT*
X103000000Y-102900000D02*
X103000000Y-99100000D01*
X103000000Y-99100000D02*
X102250000Y-98350000D01*
X101750000Y-98600000D02*
X102000000Y-98600000D01*
X102000000Y-98600000D02*
X102250000Y-98350000D01*
G04 #@! TD*
M02*
