G04 #@! TF.GenerationSoftware,KiCad,Pcbnew,(5.0.0)*
G04 #@! TF.CreationDate,2020-06-05T12:48:55-07:00*
G04 #@! TF.ProjectId,mojave,6D6F6A6176652E6B696361645F706362,3X*
G04 #@! TF.SameCoordinates,Original*
G04 #@! TF.FileFunction,Copper,L1,Top,Signal*
G04 #@! TF.FilePolarity,Positive*
%FSLAX46Y46*%
G04 Gerber Fmt 4.6, Leading zero omitted, Abs format (unit mm)*
G04 Created by KiCad (PCBNEW (5.0.0)) date 06/05/20 12:48:55*
%MOMM*%
%LPD*%
G01*
G04 APERTURE LIST*
G04 #@! TA.AperFunction,SMDPad,CuDef*
%ADD10R,0.450000X0.400000*%
G04 #@! TD*
G04 #@! TA.AperFunction,ViaPad*
%ADD11C,1.060000*%
G04 #@! TD*
G04 #@! TA.AperFunction,ViaPad*
%ADD12C,0.304800*%
G04 #@! TD*
G04 #@! TA.AperFunction,Conductor*
%ADD13C,0.200000*%
G04 #@! TD*
G04 APERTURE END LIST*
D10*
G04 #@! TO.P,U1,1*
G04 #@! TO.N,/INT*
X101425000Y-101200000D03*
G04 #@! TO.P,U1,2*
G04 #@! TO.N,/SCL*
X101425000Y-100400000D03*
G04 #@! TO.P,U1,3*
G04 #@! TO.N,/SDA*
X101425000Y-99600000D03*
G04 #@! TO.P,U1,4*
G04 #@! TO.N,/PROG*
X101425000Y-98800000D03*
G04 #@! TO.P,U1,5*
G04 #@! TO.N,GND*
X98575000Y-98800000D03*
G04 #@! TO.P,U1,6*
G04 #@! TO.N,+1V8*
X98575000Y-99600000D03*
G04 #@! TO.P,U1,7*
X98575000Y-100400000D03*
G04 #@! TO.P,U1,8*
G04 #@! TO.N,/~RST*
X98575000Y-101200000D03*
G04 #@! TD*
D11*
G04 #@! TO.N,*
X101500000Y-102900000D03*
X98500000Y-102900000D03*
D12*
G04 #@! TO.N,+1V8*
X97750000Y-99450000D03*
X97750000Y-100050000D03*
G04 #@! TO.N,GND*
X97750000Y-98800000D03*
G04 #@! TO.N,/~RST*
X97864002Y-101200000D03*
G04 #@! TO.N,/PROG*
X102250000Y-98800000D03*
G04 #@! TO.N,/SDA*
X102250000Y-99450000D03*
G04 #@! TO.N,/SCL*
X102250000Y-100050000D03*
G04 #@! TO.N,/INT*
X102250000Y-98350000D03*
G04 #@! TD*
D13*
G04 #@! TO.N,*
X98500000Y-102900000D02*
X101500000Y-102900000D01*
G04 #@! TO.N,+1V8*
X98575000Y-100400000D02*
X98100000Y-100400000D01*
X98100000Y-100400000D02*
X97750000Y-100050000D01*
X98575000Y-99600000D02*
X97900000Y-99600000D01*
X97900000Y-99600000D02*
X97750000Y-99450000D01*
G04 #@! TO.N,GND*
X98575000Y-98800000D02*
X97750000Y-98800000D01*
G04 #@! TO.N,/~RST*
X98575000Y-101200000D02*
X97864002Y-101200000D01*
G04 #@! TO.N,/PROG*
X101425000Y-98800000D02*
X102250000Y-98800000D01*
G04 #@! TO.N,/SDA*
X101425000Y-99600000D02*
X102100000Y-99600000D01*
X102100000Y-99600000D02*
X102250000Y-99450000D01*
G04 #@! TO.N,/SCL*
X101425000Y-100400000D02*
X101900000Y-100400000D01*
X101900000Y-100400000D02*
X102250000Y-100050000D01*
G04 #@! TO.N,/INT*
X101425000Y-101200000D02*
X101850000Y-101200000D01*
X101850000Y-101200000D02*
X102604001Y-100445999D01*
X102604001Y-100445999D02*
X102604001Y-98488475D01*
X102604001Y-98488475D02*
X102465526Y-98350000D01*
X102465526Y-98350000D02*
X102250000Y-98350000D01*
G04 #@! TD*
M02*
