G04 #@! TF.GenerationSoftware,KiCad,Pcbnew,(5.0.0)*
G04 #@! TF.CreationDate,2020-06-05T12:48:55-07:00*
G04 #@! TF.ProjectId,mojave,6D6F6A6176652E6B696361645F706362,3X*
G04 #@! TF.SameCoordinates,Original*
G04 #@! TF.FileFunction,Legend,Bot*
G04 #@! TF.FilePolarity,Positive*
%FSLAX46Y46*%
G04 Gerber Fmt 4.6, Leading zero omitted, Abs format (unit mm)*
G04 Created by KiCad (PCBNEW (5.0.0)) date 06/05/20 12:48:55*
%MOMM*%
%LPD*%
G01*
G04 APERTURE LIST*
%ADD10C,0.120000*%
%ADD11C,0.100000*%
%ADD12C,0.150000*%
G04 APERTURE END LIST*
D10*
G04 #@! TO.C,C1*
X98750000Y-96700000D02*
X98250000Y-96700000D01*
X98250000Y-97500000D02*
X98750000Y-97500000D01*
D11*
G04 #@! TO.C,J1*
X102450000Y-97700000D02*
G75*
G03X102450000Y-97700000I-50000J0D01*
G01*
X103000000Y-98000000D02*
X103000000Y-102000000D01*
X103000000Y-102000000D02*
X97000000Y-102000000D01*
X97000000Y-102000000D02*
X97000000Y-98000000D01*
X97000000Y-98000000D02*
X103000000Y-98000000D01*
G04 #@! TO.C,C1*
D12*
X98666666Y-100257142D02*
X98714285Y-100304761D01*
X98857142Y-100352380D01*
X98952380Y-100352380D01*
X99095238Y-100304761D01*
X99190476Y-100209523D01*
X99238095Y-100114285D01*
X99285714Y-99923809D01*
X99285714Y-99780952D01*
X99238095Y-99590476D01*
X99190476Y-99495238D01*
X99095238Y-99400000D01*
X98952380Y-99352380D01*
X98857142Y-99352380D01*
X98714285Y-99400000D01*
X98666666Y-99447619D01*
X97714285Y-100352380D02*
X98285714Y-100352380D01*
X98000000Y-100352380D02*
X98000000Y-99352380D01*
X98095238Y-99495238D01*
X98190476Y-99590476D01*
X98285714Y-99638095D01*
G04 #@! TO.C,J1*
X101533333Y-99452380D02*
X101533333Y-100166666D01*
X101580952Y-100309523D01*
X101676190Y-100404761D01*
X101819047Y-100452380D01*
X101914285Y-100452380D01*
X100533333Y-100452380D02*
X101104761Y-100452380D01*
X100819047Y-100452380D02*
X100819047Y-99452380D01*
X100914285Y-99595238D01*
X101009523Y-99690476D01*
X101104761Y-99738095D01*
G04 #@! TD*
M02*
