G04 #@! TF.GenerationSoftware,KiCad,Pcbnew,(5.0.0)*
G04 #@! TF.CreationDate,2020-06-05T12:48:55-07:00*
G04 #@! TF.ProjectId,mojave,6D6F6A6176652E6B696361645F706362,3X*
G04 #@! TF.SameCoordinates,Original*
G04 #@! TF.FileFunction,Legend,Top*
G04 #@! TF.FilePolarity,Positive*
%FSLAX46Y46*%
G04 Gerber Fmt 4.6, Leading zero omitted, Abs format (unit mm)*
G04 Created by KiCad (PCBNEW (5.0.0)) date 06/05/20 12:48:55*
%MOMM*%
%LPD*%
G01*
G04 APERTURE LIST*
%ADD10C,0.150000*%
%ADD11C,0.100000*%
G04 APERTURE END LIST*
D10*
X98633333Y-96716666D02*
X98700000Y-96716666D01*
X98766666Y-96750000D01*
X98800000Y-96783333D01*
X98833333Y-96850000D01*
X98866666Y-96983333D01*
X98866666Y-97150000D01*
X98833333Y-97283333D01*
X98800000Y-97350000D01*
X98766666Y-97383333D01*
X98700000Y-97416666D01*
X98633333Y-97416666D01*
X98566666Y-97383333D01*
X98533333Y-97350000D01*
X98500000Y-97283333D01*
X98466666Y-97150000D01*
X98466666Y-96983333D01*
X98500000Y-96850000D01*
X98533333Y-96783333D01*
X98566666Y-96750000D01*
X98633333Y-96716666D01*
X99100000Y-96716666D02*
X99533333Y-96716666D01*
X99300000Y-96983333D01*
X99400000Y-96983333D01*
X99466666Y-97016666D01*
X99500000Y-97050000D01*
X99533333Y-97116666D01*
X99533333Y-97283333D01*
X99500000Y-97350000D01*
X99466666Y-97383333D01*
X99400000Y-97416666D01*
X99200000Y-97416666D01*
X99133333Y-97383333D01*
X99100000Y-97350000D01*
X100133333Y-96950000D02*
X100133333Y-97416666D01*
X99966666Y-96683333D02*
X99800000Y-97183333D01*
X100233333Y-97183333D01*
X100466666Y-96783333D02*
X100500000Y-96750000D01*
X100566666Y-96716666D01*
X100733333Y-96716666D01*
X100800000Y-96750000D01*
X100833333Y-96783333D01*
X100866666Y-96850000D01*
X100866666Y-96916666D01*
X100833333Y-97016666D01*
X100433333Y-97416666D01*
X100866666Y-97416666D01*
X101100000Y-96716666D02*
X101566666Y-97416666D01*
X101566666Y-96716666D02*
X101100000Y-97416666D01*
D11*
G04 #@! TO.C,U1*
X102000000Y-101000000D02*
X101000000Y-102000000D01*
X98000000Y-102000000D02*
X101000000Y-102000000D01*
X98000000Y-98000000D02*
X98000000Y-102000000D01*
X102000000Y-98000000D02*
X98000000Y-98000000D01*
X102000000Y-101000000D02*
X102000000Y-98000000D01*
X99619047Y-102226190D02*
X99619047Y-102630952D01*
X99642857Y-102678571D01*
X99666666Y-102702380D01*
X99714285Y-102726190D01*
X99809523Y-102726190D01*
X99857142Y-102702380D01*
X99880952Y-102678571D01*
X99904761Y-102630952D01*
X99904761Y-102226190D01*
X100404761Y-102726190D02*
X100119047Y-102726190D01*
X100261904Y-102726190D02*
X100261904Y-102226190D01*
X100214285Y-102297619D01*
X100166666Y-102345238D01*
X100119047Y-102369047D01*
G04 #@! TD*
M02*
