G04 #@! TF.GenerationSoftware,KiCad,Pcbnew,(5.0.0)*
G04 #@! TF.CreationDate,2020-06-05T12:48:55-07:00*
G04 #@! TF.ProjectId,mojave,6D6F6A6176652E6B696361645F706362,3X*
G04 #@! TF.SameCoordinates,Original*
G04 #@! TF.FileFunction,Other,Fab,Top*
%FSLAX46Y46*%
G04 Gerber Fmt 4.6, Leading zero omitted, Abs format (unit mm)*
G04 Created by KiCad (PCBNEW (5.0.0)) date 06/05/20 12:48:56*
%MOMM*%
%LPD*%
G01*
G04 APERTURE LIST*
%ADD10C,0.100000*%
G04 APERTURE END LIST*
D10*
G04 #@! TO.C,U1*
X101000000Y-101750000D02*
X101750000Y-101000000D01*
X98250000Y-101750000D02*
X101000000Y-101750000D01*
X98250000Y-98250000D02*
X98250000Y-101750000D01*
X101750000Y-98250000D02*
X98250000Y-98250000D01*
X101750000Y-101000000D02*
X101750000Y-98250000D01*
G04 #@! TD*
G04 #@! TO.C,U1*
X99214285Y-97678571D02*
X99190476Y-97702380D01*
X99119047Y-97726190D01*
X99071428Y-97726190D01*
X99000000Y-97702380D01*
X98952380Y-97654761D01*
X98928571Y-97607142D01*
X98904761Y-97511904D01*
X98904761Y-97440476D01*
X98928571Y-97345238D01*
X98952380Y-97297619D01*
X99000000Y-97250000D01*
X99071428Y-97226190D01*
X99119047Y-97226190D01*
X99190476Y-97250000D01*
X99214285Y-97273809D01*
X99428571Y-97726190D02*
X99428571Y-97226190D01*
X99428571Y-97464285D02*
X99714285Y-97464285D01*
X99714285Y-97726190D02*
X99714285Y-97226190D01*
X99904761Y-97726190D02*
X100166666Y-97392857D01*
X99904761Y-97392857D02*
X100166666Y-97726190D01*
X100452380Y-97226190D02*
X100500000Y-97226190D01*
X100547619Y-97250000D01*
X100571428Y-97273809D01*
X100595238Y-97321428D01*
X100619047Y-97416666D01*
X100619047Y-97535714D01*
X100595238Y-97630952D01*
X100571428Y-97678571D01*
X100547619Y-97702380D01*
X100500000Y-97726190D01*
X100452380Y-97726190D01*
X100404761Y-97702380D01*
X100380952Y-97678571D01*
X100357142Y-97630952D01*
X100333333Y-97535714D01*
X100333333Y-97416666D01*
X100357142Y-97321428D01*
X100380952Y-97273809D01*
X100404761Y-97250000D01*
X100452380Y-97226190D01*
X101095238Y-97726190D02*
X100809523Y-97726190D01*
X100952380Y-97726190D02*
X100952380Y-97226190D01*
X100904761Y-97297619D01*
X100857142Y-97345238D01*
X100809523Y-97369047D01*
G04 #@! TD*
M02*
